<svg width="31" height="31" viewBox="0 0 31 31" fill="none" xmlns="http://www.w3.org/2000/svg">
<path d="M8 27V4C8 3.44772 8.44772 3 9 3H23C23.5523 3 24 3.44772 24 4V27C24 27.5523 23.5523 28 23 28H9C8.44772 28 8 27.5523 8 27Z" stroke="black" stroke-width="0.8"/>
<path d="M21.9 5H10.1C10.0448 5 10 5.04477 10 5.1V16.9C10 16.9552 10.0448 17 10.1 17H21.9C21.9552 17 22 16.9552 22 16.9V5.1C22 5.04477 21.9552 5 21.9 5Z" stroke="black" stroke-width="0.8"/>
<circle cx="16" cy="12" r="2" fill="#00FF99"/>
<path d="M16 8L17.7321 11H14.2679L16 8Z" fill="#00FF99"/>
<path d="M24.5 20.5H25.4C25.4552 20.5 25.5 20.4552 25.5 20.4V7.04142C25.5 7.0149 25.5105 6.98946 25.5293 6.97071L26.3293 6.17071C26.3923 6.10771 26.5 6.15233 26.5 6.24142V9.5" stroke="black" stroke-width="0.8"/>
<path d="M10 19V25.9C10 25.9552 10.0448 26 10.1 26H21.9C21.9552 26 22 25.9552 22 25.9V19" stroke="black" stroke-width="0.8" stroke-linecap="round"/>
<path d="M12 20H20" stroke="black" stroke-width="0.8" stroke-linecap="round"/>
<path d="M12 24H20" stroke="black" stroke-width="0.8" stroke-linecap="round"/>
</svg>
